<?xml version="1.0" standalone="no"?>
<!DOCTYPE svg PUBLIC "-//W3C//DTD SVG 20010904//EN"
 "http://www.w3.org/TR/2001/REC-SVG-20010904/DTD/svg10.dtd">
<svg version="1.0" xmlns="http://www.w3.org/2000/svg"
 width="64.000000pt" height="64.000000pt" viewBox="0 0 64.000000 64.000000"
 preserveAspectRatio="xMidYMid meet">

<g transform="translate(0.000000,64.000000) scale(0.100000,-0.100000)"
fill="#000000" stroke="none">
<path d="M186 593 c-39 -59 -77 -183 -56 -183 6 0 10 7 10 15 0 12 28 35 44
35 2 0 7 -12 9 -27 3 -22 4 -21 3 5 -1 17 2 32 6 32 4 0 8 -27 8 -60 0 -50 -4
-63 -26 -85 -28 -28 -26 -60 7 -84 16 -11 19 -26 19 -97 0 -66 -3 -84 -14 -84
-22 0 -56 114 -63 210 -5 63 -8 78 -14 58 -15 -58 29 -258 65 -294 6 -7 33
-14 60 -17 47 -5 50 -3 92 39 122 121 204 331 183 465 -5 28 -10 54 -13 56
-20 20 -106 -40 -157 -109 l-27 -38 -11 47 c-14 55 -36 100 -64 131 -27 30
-33 28 -61 -15z m64 -13 c9 -16 8 -20 -5 -20 -8 0 -15 9 -15 20 0 11 2 20 5
20 2 0 9 -9 15 -20z m-40 -14 c0 -21 -26 -44 -37 -32 -5 4 26 56 33 56 2 0 4
-11 4 -24z m240 -73 c-16 -38 -52 -120 -79 -183 l-51 -115 7 60 c11 101 107
303 145 305 4 0 -6 -30 -22 -67z m-173 42 c7 -19 5 -20 -24 -29 -19 -6 -23 -3
-23 12 0 30 37 43 47 17z m233 -23 c0 -8 -43 -114 -96 -236 -86 -199 -122
-261 -140 -243 -3 2 40 107 95 233 131 303 123 287 133 272 4 -7 8 -19 8 -26z
m-300 -2 c0 -19 -44 -49 -55 -38 -14 13 19 48 53 57 1 1 2 -8 2 -19z m87 -37
c5 -16 8 -89 8 -163 -1 -148 -22 -242 -57 -248 -16 -3 -18 6 -18 79 0 74 2 84
25 105 14 13 25 32 25 43 0 20 -24 51 -41 51 -5 0 -9 32 -9 70 0 64 2 72 23
80 33 13 36 12 44 -17z m66 -52 c-18 -41 -29 -57 -35 -49 -4 7 -8 16 -8 19 0
9 62 100 66 96 2 -2 -8 -32 -23 -66z m141 -8 c-12 -66 -60 -188 -98 -248 -21
-31 -39 -55 -41 -53 -4 4 137 338 143 338 2 0 0 -17 -4 -37z m-254 -97 c6 -8
10 -25 8 -38 -6 -42 -78 -32 -78 11 0 37 46 55 70 27z m0 -276 c0 -5 -11 -10
-24 -10 -14 0 -28 5 -31 10 -4 6 7 10 24 10 17 0 31 -4 31 -10z"/>
<path d="M191 364 c0 -11 3 -14 6 -6 3 7 2 16 -1 19 -3 4 -6 -2 -5 -13z"/>
</g>
</svg>
